# xmcd CD database file
#
# Track frame offsets:
#	150
#	11750
#	33122
#	56111
#	72554
#	89669
#	122015
#	134959
#	160700
#	179794
#	210541
#	232889
#	247878
#
# Disc length: 3601 seconds
#
# Revision: 0
# Processed by: cddbd v1.5.2PL0 Copyright (c) Steve Scherf et al.
# Submitted via: CDex 1.79
#
DISCID=bc0e0f0d
DTITLE=Kaz Hawkins - Feelin' Good
DYEAR=2018
DGENRE=Blues
TTITLE0=Pray
TTITLE1=It Ain't You
TTITLE2=Don't Make Mama Cry
TTITLE3=This Is Me
TTITLE4=Belfast Town
TTITLE5=Feelin' Good
TTITLE6=Don't Run Away
TTITLE7=Because You Love Me
TTITLE8=Soul Superstar
TTITLE9=I Just Wanna Make Love
TTITLE10=This is My LIVE
TTITLE11=My Daughter My Reflection LIVE
TTITLE12=Lipstick and Cocaine LIVE
EXTD=YEAR: 2018
EXTT0=
EXTT1=
EXTT2=
EXTT3=
EXTT4=
EXTT5=
EXTT6=
EXTT7=
EXTT8=
EXTT9=
EXTT10=
EXTT11=
EXTT12=
PLAYORDER=
